<svg width="38" height="47" viewBox="0 0 38 47" fill="none" xmlns="http://www.w3.org/2000/svg">
<g clipPath="url(#clip0_2987_223076)">
<path d="M31.9226 5.47738C24.621 -1.82579 12.7806 -1.82579 5.47738 5.47738C-1.82579 12.779 -1.82579 24.6194 5.47738 31.9226C8.84258 35.2862 18.7016 45.1437 18.7016 45.1437C18.7016 45.1437 28.7535 35.0901 31.9226 31.9226C39.2258 24.6194 39.2258 12.779 31.9226 5.47738Z" fill="#077BE7"/>
<path fillRule="evenodd" clipRule="evenodd" d="M8.53271 10.9624V29.0569H12.7696V21.1016H20.205V17.7473H12.7696V14.4973H20.5957V10.9624H8.53271ZM21.6383 15.4081V29.0572H25.9032V23.2078C25.9032 21.838 26.188 20.8637 26.7608 20.2831C27.332 19.7025 27.9733 19.4114 28.6847 19.4114C29.066 19.4114 29.4209 19.4472 29.7509 19.5157C30.0793 19.5858 30.3906 19.6807 30.6863 19.8021V15.4081C30.512 15.3396 30.3299 15.2867 30.14 15.2524C29.9486 15.2182 29.7151 15.2011 29.438 15.2011C28.7625 15.2011 28.0854 15.4345 27.4099 15.903C26.7343 16.37 26.1973 17.1249 25.7989 18.1647L25.4347 15.4081H21.6383Z" fill="#FFF4F0"/>
</g>
<defs>
<clipPath id="clip0_2987_223076">
<rect width="37.4" height="46.75" fill="white"/>
</clipPath>
</defs>
</svg>
